<svg width="12" height="15" viewBox="0 0 12 15" fill="none" xmlns="http://www.w3.org/2000/svg">
<path fill-rule="evenodd" clip-rule="evenodd" d="M6.82498 1.43749C6.82498 1.42128 6.82498 1.41318 6.82428 1.39849C6.80975 1.09432 6.54226 0.826969 6.23809 0.81258C6.22341 0.811885 6.21859 0.811887 6.20899 0.81189H4.21231C3.71647 0.811883 3.30722 0.811878 2.97385 0.839115C2.6276 0.867405 2.30931 0.92812 2.01035 1.08045C1.54672 1.31668 1.16977 1.69363 0.933539 2.15726C0.781208 2.45623 0.720492 2.77452 0.692202 3.12077C0.664965 3.45414 0.664971 3.86338 0.664978 4.35923V10.8165C0.664971 11.3124 0.664965 11.7216 0.692202 12.055C0.720492 12.4013 0.781208 12.7196 0.933539 13.0185C1.16977 13.4822 1.54672 13.8591 2.01035 14.0953C2.30931 14.2477 2.6276 14.3084 2.97385 14.3367C3.30723 14.3639 3.71647 14.3639 4.21232 14.3639H8.20564C8.70149 14.3639 9.11073 14.3639 9.4441 14.3367C9.79036 14.3084 10.1086 14.2477 10.4076 14.0953C10.8712 13.8591 11.2482 13.4822 11.4844 13.0185C11.6368 12.7196 11.6975 12.4013 11.7258 12.055C11.753 11.7216 11.753 11.3124 11.753 10.8165V6.35585C11.753 6.34629 11.753 6.3415 11.7523 6.32683C11.7379 6.02263 11.4705 5.75511 11.1663 5.7406C11.1517 5.7399 11.1436 5.7399 11.1274 5.7399L8.40692 5.7399C8.25146 5.73992 8.10006 5.73994 7.97183 5.72946C7.83102 5.71795 7.66486 5.69081 7.49767 5.60562C7.26585 5.4875 7.07738 5.29903 6.95926 5.06721C6.87407 4.90002 6.84693 4.73386 6.83542 4.59305C6.82494 4.46482 6.82496 4.31341 6.82498 4.15795L6.82498 1.43749ZM8.80056 8.94747C9.04112 8.70691 9.04112 8.31688 8.80056 8.07631C8.55999 7.83575 8.16996 7.83575 7.9294 8.07631L5.59298 10.4127L4.79656 9.61631C4.55599 9.37575 4.16596 9.37575 3.9254 9.61631C3.68484 9.85688 3.68484 10.2469 3.9254 10.4875L5.1574 11.7195C5.39796 11.96 5.78799 11.96 6.02856 11.7195L8.80056 8.94747Z" fill="#888C8F"/>
<path d="M10.4643 4.50789C10.6452 4.50789 10.7356 4.50789 10.8097 4.46247C10.9143 4.39833 10.9768 4.24722 10.9482 4.1279C10.9278 4.04341 10.8689 3.98449 10.7509 3.86666L8.69822 1.81395C8.58038 1.69599 8.52146 1.63702 8.43696 1.61671C8.31765 1.58803 8.16654 1.65057 8.1024 1.7552C8.05698 1.82928 8.05698 1.91972 8.05698 2.10059L8.05698 4.01507C8.05698 4.18756 8.05698 4.2738 8.09055 4.33969C8.12008 4.39764 8.16719 4.44476 8.22515 4.47429C8.29103 4.50786 8.37728 4.50786 8.54977 4.50786L10.4643 4.50789Z" fill="#888C8F"/>
</svg>
